<svg width="16" height="16" viewBox="0 0 16 16" fill="none" xmlns="http://www.w3.org/2000/svg">
<path d="M8 15.5C12.1421 15.5 15.5 12.1421 15.5 8C15.5 3.85786 12.1421 0.5 8 0.5C3.85786 0.5 0.5 3.85786 0.5 8C0.5 12.1421 3.85786 15.5 8 15.5Z" stroke="#9797AF"/>
<path d="M7.88867 5.58691C7.62826 5.58691 7.41504 5.51042 7.24902 5.35742C7.08301 5.20117 7 5.01074 7 4.78613C7 4.55501 7.08301 4.36621 7.24902 4.21973C7.41504 4.07324 7.62826 4 7.88867 4C8.1523 4 8.3656 4.07324 8.5283 4.21973C8.6943 4.36621 8.7773 4.55501 8.7773 4.78613C8.7773 5.02051 8.6943 5.21257 8.5283 5.3623C8.3656 5.51204 8.1523 5.58691 7.88867 5.58691ZM8.6504 11.3779H7.10742V6.37793H8.6504V11.3779Z" fill="#9797AF"/>
</svg>
